<?xml version="1.0" standalone="no"?>
<!DOCTYPE svg PUBLIC "-//W3C//DTD SVG 20010904//EN"
 "http://www.w3.org/TR/2001/REC-SVG-20010904/DTD/svg10.dtd">
<svg version="1.0" xmlns="http://www.w3.org/2000/svg"
 width="500.000000pt" height="500.000000pt" viewBox="0 0 500.000000 500.000000"
 preserveAspectRatio="xMidYMid meet">

<g transform="translate(0.000000,500.000000) scale(0.100000,-0.100000)"
fill="#000000" stroke="none">
<path d="M2285 4858 c-274 -25 -576 -113 -839 -245 -580 -289 -1019 -813
-1215 -1448 -66 -213 -83 -357 -82 -694 1 -265 8 -356 41 -496 53 -227 181
-539 300 -730 177 -285 453 -566 740 -755 276 -182 695 -330 1023 -361 140
-14 508 -5 637 16 125 19 368 86 491 136 302 120 559 289 789 519 205 205 342
389 459 620 176 345 253 669 252 1065 -1 400 -69 700 -241 1050 -116 237 -247
420 -439 618 -287 295 -633 506 -1001 611 -329 94 -605 122 -915 94z m390 -38
c472 -35 864 -181 1233 -460 423 -319 706 -732 856 -1249 56 -190 67 -296 67
-621 1 -312 -7 -399 -51 -565 -179 -681 -613 -1215 -1244 -1532 -200 -100
-404 -165 -646 -205 -179 -29 -573 -32 -745 -5 -640 100 -1222 478 -1589 1032
-101 152 -205 365 -253 515 -94 298 -113 403 -120 665 -6 239 5 403 36 556
145 698 612 1309 1241 1624 291 145 571 224 870 244 170 12 192 12 345 1z"/>
<path d="M2295 4709 c-535 -41 -1059 -307 -1444 -731 -450 -496 -658 -1227
-535 -1878 102 -541 393 -1026 814 -1359 117 -93 232 -163 407 -250 156 -78
224 -105 367 -147 200 -58 276 -67 601 -68 322 -1 419 9 609 66 643 190 1162
640 1433 1242 59 132 127 337 153 467 27 132 37 431 22 679 -9 149 -16 194
-46 301 -167 605 -504 1056 -1024 1372 -312 189 -627 286 -1002 307 -202 11
-196 11 -355 -1z m468 -49 c173 -13 256 -29 427 -86 381 -126 710 -348 982
-663 572 -663 690 -1578 307 -2371 -316 -654 -908 -1094 -1634 -1216 -123 -21
-516 -24 -645 -5 -362 53 -749 221 -1044 454 -339 267 -581 616 -726 1043 -77
229 -90 308 -97 585 -11 430 30 650 186 1000 168 377 505 755 860 965 229 136
543 253 776 289 99 16 423 18 608 5z"/>
<path d="M3245 3201 c-50 -23 -109 -84 -130 -133 -18 -44 -20 -122 -3 -168 6
-19 43 -88 81 -154 l69 -121 -1 -292 -2 -291 23 -16 c33 -23 103 -21 129 5 20
20 20 29 18 308 l-2 287 63 109 c34 59 71 126 81 149 37 82 17 191 -49 260
-51 53 -104 76 -177 76 -37 0 -75 -7 -100 -19z m85 -293 c0 -171 -4 -288 -9
-282 -5 5 -28 73 -51 152 -39 130 -42 151 -38 225 5 84 21 131 61 175 11 12
24 22 29 22 4 0 8 -131 8 -292z m74 261 c40 -47 60 -129 53 -219 -7 -81 -77
-322 -96 -328 -8 -3 -11 76 -11 287 0 318 1 323 54 260z m-163 -31 c-24 -48
-26 -63 -25 -163 1 -100 5 -121 42 -232 22 -68 36 -121 32 -118 -4 2 -43 67
-86 142 -67 118 -79 146 -82 195 -6 77 29 154 89 197 23 17 45 31 49 31 4 0
-5 -24 -19 -52z m294 -44 c26 -41 30 -57 30 -118 0 -70 -1 -73 -79 -209 -43
-75 -82 -140 -87 -142 -4 -3 3 30 17 72 61 198 67 225 61 309 -3 61 -11 95
-31 134 l-26 52 42 -25 c25 -14 55 -45 73 -73z m-144 -504 c18 -10 19 -23 19
-235 l0 -225 -65 0 -65 0 0 225 c0 203 2 225 18 234 22 13 68 14 93 1z m17
-509 c5 -30 -20 -51 -61 -51 -41 0 -67 17 -67 44 0 33 8 37 70 34 50 -3 55 -5
58 -27z"/>
<path d="M1625 3043 c-35 -34 -51 -123 -69 -378 -14 -194 -28 -245 -71 -254
-37 -7 -45 25 -45 170 l0 137 -41 7 c-22 4 -42 5 -43 3 -8 -10 13 -307 22
-325 25 -47 102 -48 159 -3 27 21 28 21 38 4 5 -10 24 -33 41 -51 42 -44 80
-44 125 -1 36 33 26 51 -13 24 -29 -20 -34 -20 -58 4 -27 27 -25 56 9 159 35
105 51 210 51 334 -1 102 -12 166 -32 178 -21 14 -55 10 -73 -8z m55 -109 c6
-14 10 -48 10 -76 0 -67 -29 -260 -41 -273 -10 -10 -13 277 -3 338 8 43 20 48
34 11z"/>
<path d="M2024 3048 c-24 -39 -11 -665 15 -691 7 -7 46 -13 92 -16 l79 -3 45
45 45 44 0 89 c0 112 -13 159 -55 201 -41 41 -94 46 -118 11 -15 -22 -16 -16
-16 87 0 61 4 131 8 157 9 52 6 60 -26 77 -28 14 -60 14 -69 -1z m186 -363 c8
-10 11 -51 8 -135 -3 -114 -5 -123 -27 -141 -13 -10 -38 -19 -57 -19 -29 0
-34 4 -34 23 0 46 21 203 31 234 15 48 55 67 79 38z"/>
<path d="M2956 3051 c-4 -5 -5 -70 -4 -145 1 -78 -2 -140 -8 -146 -6 -6 -22
-6 -46 2 -30 9 -41 8 -61 -5 -43 -28 -97 -174 -97 -263 0 -27 -7 -50 -20 -65
l-20 -24 -25 28 c-23 25 -25 37 -26 120 -2 137 -7 151 -50 155 l-36 3 -6 -103
c-7 -114 -21 -169 -49 -195 -15 -13 -23 -15 -36 -7 -23 15 -29 50 -32 179 -1
61 -5 121 -9 135 -8 28 -48 40 -62 18 -13 -20 -10 -216 4 -285 16 -72 37 -100
83 -109 50 -9 71 3 95 54 12 26 23 48 24 50 1 1 18 -13 38 -33 32 -32 40 -35
92 -35 46 0 63 -5 87 -25 53 -45 130 -26 143 35 l7 31 39 -36 c21 -19 48 -35
60 -35 60 0 112 68 125 164 10 68 -17 58 -32 -12 -16 -69 -39 -104 -67 -100
-34 5 -38 50 -31 366 l6 292 -40 0 c-23 0 -43 -4 -46 -9z m-18 -363 c17 -17
15 -68 -7 -174 -28 -136 -65 -193 -97 -149 -28 39 -7 254 31 311 17 26 53 32
73 12z"/>
<path d="M653 3000 c-54 -12 -99 -55 -135 -127 -28 -57 -33 -77 -33 -142 0
-63 4 -84 25 -120 14 -24 41 -53 61 -64 35 -21 37 -21 64 -3 l28 19 -24 13
c-13 7 -34 13 -46 14 -12 0 -29 8 -38 17 -26 25 -17 192 13 250 44 84 117 110
147 52 16 -29 28 -198 37 -493 l3 -80 34 -9 c25 -6 38 -5 47 5 8 7 22 65 33
128 22 124 57 250 70 250 13 0 21 -55 21 -154 0 -50 5 -108 11 -129 12 -43 46
-70 85 -65 27 3 28 6 44 105 25 144 51 248 60 232 4 -8 10 -61 13 -119 10
-168 40 -240 102 -240 52 0 77 42 31 54 -44 11 -49 46 -44 306 l6 239 -27 32
c-18 21 -33 30 -43 26 -22 -8 -51 -91 -99 -283 -23 -90 -45 -164 -49 -164 -5
0 -10 70 -12 156 l-3 156 -28 24 c-33 28 -72 31 -86 6 -5 -10 -21 -65 -36
-123 -44 -175 -46 -182 -55 -173 -5 5 -13 71 -18 146 -10 137 -29 207 -63 235
-26 21 -63 30 -96 23z"/>
<path d="M1368 2892 c-26 -5 -22 -20 13 -53 33 -31 70 -37 88 -15 24 29 -51
79 -101 68z"/>
<path d="M3984 2756 c-45 -20 -73 -73 -94 -179 -20 -101 -46 -167 -66 -167
-18 0 -24 25 -31 129 -7 119 -15 143 -45 139 -15 -2 -34 -21 -55 -58 -18 -30
-37 -62 -42 -70 -7 -10 -10 13 -10 76 -1 97 -13 129 -47 122 -18 -3 -19 -13
-19 -198 l0 -195 31 -3 c39 -4 47 7 68 99 9 42 23 85 30 95 11 15 14 7 20 -57
4 -41 14 -85 23 -98 13 -20 21 -23 56 -18 25 3 49 14 59 26 22 28 30 26 50 -8
20 -37 56 -60 101 -68 29 -4 48 1 91 26 63 35 79 37 129 16 64 -27 151 -13
186 28 19 24 -2 52 -89 122 -57 45 -70 61 -70 84 0 42 28 61 91 61 57 0 79 12
79 42 0 44 -93 47 -175 6 -52 -26 -74 -55 -75 -98 0 -31 9 -44 85 -115 47 -44
85 -88 85 -98 0 -24 -39 -22 -102 5 -52 22 -71 49 -61 87 9 37 -13 23 -33 -20
-30 -69 -51 -89 -90 -89 -46 0 -70 14 -89 51 -19 35 -15 44 22 54 44 10 71 32
93 75 38 74 19 180 -36 200 -31 12 -32 12 -70 -4z m75 -80 c22 -55 -33 -163
-70 -140 -15 9 -10 72 7 107 32 63 49 72 63 33z"/>
<path d="M2972 2228 c-16 -29 -37 -77 -47 -105 -9 -29 -21 -55 -26 -58 -5 -4
-9 -11 -9 -16 0 -6 4 -7 10 -4 6 3 7 -1 4 -10 -3 -8 -3 -26 0 -40 12 -48 57
-25 105 55 35 59 23 56 -16 -4 -21 -31 -44 -56 -51 -56 -26 0 -7 77 36 143 52
79 66 112 59 131 -12 30 -35 16 -65 -36z m23 -35 c-14 -26 -23 -37 -19 -23 12
45 36 95 41 83 2 -6 -7 -33 -22 -60z"/>
<path d="M1478 2220 c-18 -32 -29 -40 -53 -41 l-30 -2 28 -4 c15 -2 27 -6 27
-9 0 -20 -32 -73 -53 -87 -22 -14 -26 -15 -31 -1 -3 9 -6 27 -6 41 0 15 -5 23
-12 20 -9 -2 -12 -19 -10 -45 3 -35 -1 -46 -24 -65 -32 -28 -27 -57 9 -57 30
0 47 18 47 50 0 15 9 31 21 38 21 13 21 13 15 -32 -6 -38 -4 -47 10 -53 17 -6
21 -3 75 65 11 15 18 20 15 10 -6 -21 19 -49 39 -42 8 3 26 21 40 40 29 37 64
49 45 15 -13 -26 -13 -58 1 -67 6 -3 25 7 42 24 25 24 36 29 49 21 11 -6 19
-6 23 1 5 7 12 5 20 -7 13 -17 14 -17 34 1 24 22 29 45 6 26 -18 -15 -19 -3
-5 34 12 32 31 34 29 4 -5 -61 1 -88 20 -88 18 0 61 55 61 76 0 5 -10 -6 -21
-23 -28 -44 -39 -42 -28 5 12 50 11 55 -5 49 -8 -3 -20 0 -26 8 -16 20 -34 9
-64 -36 -30 -45 -51 -53 -36 -13 21 54 0 63 -25 10 -15 -32 -65 -87 -65 -72 0
4 7 20 15 37 17 31 13 49 -10 49 -9 0 -12 6 -9 15 4 8 1 15 -5 15 -6 0 -15
-10 -20 -23 -11 -28 -59 -87 -72 -87 -5 0 -9 11 -9 25 0 14 4 25 8 25 14 0 52
40 52 55 0 30 -47 17 -70 -20 -12 -19 -38 -54 -57 -78 l-36 -42 7 38 c4 21 16
63 28 93 18 46 25 54 47 55 25 1 25 1 4 7 l-23 7 20 30 c24 36 25 45 5 45 -8
0 -25 -18 -37 -40z m83 -123 c-8 -8 -11 -7 -11 4 0 9 3 19 7 23 4 4 9 2 11 -4
3 -7 -1 -17 -7 -23z m-221 -87 c-11 -20 -30 -28 -30 -12 0 11 22 32 32 32 5 0
4 -9 -2 -20z"/>
<path d="M2059 2239 c-24 -24 -79 -136 -79 -162 0 -25 18 -57 33 -57 14 0 63
68 55 76 -3 3 -15 -7 -27 -22 -12 -15 -24 -25 -27 -22 -11 12 9 79 37 123 31
49 56 66 69 45 5 -8 10 -9 14 -2 6 10 -29 42 -46 42 -5 0 -17 -9 -29 -21z"/>
<path d="M2328 2243 c-9 -10 -21 -28 -27 -40 -8 -16 -22 -23 -44 -24 -30 -2
-30 -2 -4 -6 15 -2 27 -8 27 -13 0 -27 -75 -150 -91 -150 -4 0 -1 16 7 35 15
38 12 55 -11 55 -9 0 -12 6 -9 15 4 8 1 15 -4 15 -20 0 -24 -21 -8 -39 13 -14
14 -22 4 -49 -10 -25 -10 -34 0 -44 9 -9 19 -5 43 18 l31 29 -2 -25 c-3 -41
-1 -50 14 -50 16 0 82 78 73 86 -3 3 -17 -11 -32 -31 -15 -19 -30 -34 -32 -31
-6 5 14 81 35 133 13 34 22 43 42 44 24 2 24 2 2 6 l-22 4 20 29 c32 44 22 71
-12 33z"/>
<path d="M840 2203 c-32 -67 -60 -152 -60 -180 0 -26 18 -32 25 -8 16 51 16
51 32 20 21 -42 64 -85 83 -85 16 0 40 18 40 30 0 3 -12 6 -27 5 -20 0 -35 11
-60 44 l-34 44 33 20 c69 41 109 103 94 143 -10 26 -38 11 -84 -45 -30 -37
-42 -47 -37 -30 4 13 14 33 21 44 16 22 18 45 5 45 -5 0 -19 -21 -31 -47z
m100 12 c0 -17 -43 -86 -62 -99 -31 -22 -41 -20 -27 7 29 54 89 116 89 92z"/>
<path d="M2103 2158 c-27 -39 -29 -48 -24 -103 5 -48 10 -61 25 -63 10 -2 22
2 27 10 14 21 10 32 -6 18 -9 -7 -18 -11 -20 -8 -8 8 14 108 30 141 25 50 1
54 -32 5z"/>
<path d="M1740 2176 c0 -8 -3 -23 -6 -33 -4 -13 0 -11 14 7 20 24 20 40 1 40
-5 0 -9 -6 -9 -14z"/>
<path d="M1133 2141 c-10 -11 -27 -35 -37 -53 -18 -32 -18 -32 17 7 20 22 36
34 37 26 0 -18 -38 -79 -55 -89 -8 -4 -11 -13 -6 -20 5 -8 18 -2 45 23 21 19
41 35 45 35 3 0 11 -10 16 -22 15 -34 42 -33 74 1 16 17 34 31 39 31 6 0 14 4
17 10 3 6 -1 7 -10 4 -13 -5 -16 -1 -13 21 2 17 -3 31 -14 38 -13 9 -25 3 -62
-31 -50 -46 -74 -55 -56 -22 8 14 8 26 0 40 -13 25 -15 25 -37 1z m152 -18
c-3 -15 -12 -31 -18 -35 -7 -4 -8 -8 -3 -8 5 0 1 -9 -9 -20 -29 -32 -46 -26
-33 11 6 16 13 27 16 24 3 -3 11 8 18 25 17 38 39 41 29 3z"/>
<path d="M1064 2128 c-8 -27 -72 -108 -85 -108 -21 0 -7 42 23 69 33 29 32 51
-2 51 -24 0 -46 -33 -54 -82 -6 -30 -3 -39 13 -47 15 -9 24 -5 48 19 l29 30
-17 -67 c-16 -65 -16 -93 1 -93 4 0 11 17 15 38 4 20 14 53 23 72 8 19 16 44
17 55 2 11 6 35 10 53 9 37 -9 46 -21 10z m-68 -26 c-18 -16 -18 -16 -6 6 6
13 14 21 18 18 3 -4 -2 -14 -12 -24z"/>
<path d="M2680 2124 c-6 -14 -10 -31 -10 -39 0 -7 -9 -23 -21 -36 l-20 -24 4
30 c2 17 6 37 8 45 2 9 -3 15 -13 15 -10 0 -23 6 -29 12 -10 10 -22 3 -57 -29
l-45 -41 -9 24 c-5 13 -7 32 -4 41 2 11 -1 18 -11 18 -11 0 -14 -11 -12 -45 3
-37 -1 -48 -24 -69 -35 -32 -27 -58 17 -54 26 3 32 9 41 42 12 40 35 61 35 32
0 -28 31 -31 51 -5 l19 24 0 -23 c0 -32 29 -40 51 -14 9 12 22 22 28 22 6 0
11 3 12 8 0 4 2 18 3 32 2 14 6 33 11 43 4 10 3 17 -4 17 -6 0 -16 -12 -21
-26z m-80 -20 c0 -9 -9 -27 -20 -41 -23 -29 -28 -11 -8 32 13 28 28 33 28 9z
m-136 -98 c-7 -17 -34 -23 -34 -6 0 9 32 31 38 26 1 -2 0 -11 -4 -20z"/>
<path d="M2356 2108 c-26 -35 -26 -77 0 -99 17 -14 42 5 76 56 17 25 15 24
-15 -7 -20 -21 -41 -38 -47 -38 -19 0 0 42 32 72 16 15 27 32 23 38 -12 20
-44 9 -69 -22z m44 -3 c-7 -9 -15 -13 -18 -10 -3 2 1 11 8 20 7 9 15 13 18 10
3 -2 -1 -11 -8 -20z"/>
<path d="M2716 2115 c-12 -18 -13 -31 -7 -49 12 -30 29 -42 44 -27 7 7 14 5
23 -7 11 -16 14 -16 33 2 24 22 29 45 6 26 -18 -15 -19 -3 -5 34 12 32 31 34
29 4 -1 -13 -1 -38 -1 -56 2 -28 5 -33 24 -30 12 2 23 9 26 16 2 7 -2 10 -11
6 -13 -5 -14 1 -6 33 11 51 11 55 -3 50 -7 -2 -21 2 -30 10 -15 14 -21 10 -62
-34 -28 -29 -46 -42 -46 -32 0 8 7 24 15 35 8 10 15 25 15 32 0 21 -27 13 -44
-13z"/>
<path d="M3566 2108 c-3 -13 -1 -27 5 -33 12 -12 688 -14 732 -2 35 9 33 38
-3 48 -14 4 -183 7 -376 8 l-352 1 -6 -22z"/>
</g>
</svg>
